<svg width="36" height="36" viewBox="0 0 36 36" fill="none" xmlns="http://www.w3.org/2000/svg">
<path d="M32.8498 28.13L32.5098 27.83C31.5452 26.9706 30.701 25.985 29.9998 24.9C29.234 23.4025 28.775 21.7672 28.6498 20.09V15.15C28.6564 12.5156 27.7008 9.96947 25.9625 7.98997C24.2243 6.01046 21.823 4.73385 19.2098 4.39999V3.10999C19.2098 2.75593 19.0692 2.41637 18.8188 2.16601C18.5684 1.91565 18.2289 1.77499 17.8748 1.77499C17.5207 1.77499 17.1812 1.91565 16.9308 2.16601C16.6805 2.41637 16.5398 2.75593 16.5398 3.10999V4.41999C13.9501 4.77792 11.5778 6.06225 9.86233 8.0351C8.14689 10.008 7.20453 12.5356 7.2098 15.15V20.09C7.08456 21.7672 6.62558 23.4025 5.8598 24.9C5.17069 25.9823 4.34 26.9677 3.3898 27.83L3.0498 28.13V30.95H32.8498V28.13Z" fill="white"/>
<path d="M15.3203 32C15.408 32.6339 15.7221 33.2146 16.2046 33.635C16.6871 34.0553 17.3054 34.2869 17.9453 34.2869C18.5852 34.2869 19.2035 34.0553 19.686 33.635C20.1685 33.2146 20.4826 32.6339 20.5703 32H15.3203Z" fill="white"/>
</svg>
