<svg width="39" height="39" viewBox="0 0 39 39" fill="none" xmlns="http://www.w3.org/2000/svg">
<path d="M32.5 13L22.75 3.25H9.75C8.88805 3.25 8.0614 3.59241 7.4519 4.2019C6.84241 4.8114 6.5 5.63805 6.5 6.5V32.5C6.5 33.362 6.84241 34.1886 7.4519 34.7981C8.0614 35.4076 8.88805 35.75 9.75 35.75H29.25C30.112 35.75 30.9386 35.4076 31.5481 34.7981C32.1576 34.1886 32.5 33.362 32.5 32.5V13ZM14.625 30.875H11.375V16.25H14.625V30.875ZM21.125 30.875H17.875V21.125H21.125V30.875ZM27.625 30.875H24.375V26H27.625V30.875ZM22.75 14.625H21.125V6.5L29.25 14.625H22.75Z" fill="white"/>
</svg>
