<svg width="36" height="36" viewBox="0 0 36 36" fill="none" xmlns="http://www.w3.org/2000/svg">
<path d="M16.4303 16.69C15.0459 16.69 13.6925 16.2795 12.5414 15.5103C11.3902 14.7411 10.493 13.6479 9.96319 12.3688C9.43338 11.0897 9.29475 9.68224 9.56485 8.32437C9.83495 6.96651 10.5016 5.71923 11.4806 4.74026C12.4596 3.76129 13.7068 3.09461 15.0647 2.82451C16.4226 2.55441 17.83 2.69304 19.1091 3.22285C20.3882 3.75266 21.4815 4.64987 22.2506 5.80101C23.0198 6.95216 23.4303 8.30554 23.4303 9.69001C23.4303 11.5465 22.6928 13.327 21.3801 14.6398C20.0673 15.9525 18.2869 16.69 16.4303 16.69ZM16.4303 4.77001C15.4414 4.77001 14.4747 5.06325 13.6525 5.61266C12.8302 6.16206 12.1894 6.94296 11.8109 7.85659C11.4325 8.77022 11.3335 9.77555 11.5264 10.7455C11.7193 11.7154 12.1955 12.6063 12.8948 13.3055C13.5941 14.0048 14.485 14.481 15.4549 14.6739C16.4248 14.8669 17.4301 14.7678 18.3438 14.3894C19.2574 14.011 20.0383 13.3701 20.5877 12.5479C21.1371 11.7256 21.4303 10.7589 21.4303 9.77001C21.4303 9.1134 21.301 8.46322 21.0497 7.85659C20.7985 7.24996 20.4302 6.69876 19.9659 6.23447C19.5016 5.77018 18.9504 5.40188 18.3438 5.15061C17.7371 4.89933 17.087 4.77001 16.4303 4.77001ZM22.0003 17.9C16.5888 16.6823 10.9274 17.2688 5.88035 19.57C5.18624 19.9016 4.60061 20.4235 4.19165 21.075C3.78268 21.7265 3.56722 22.4808 3.57035 23.25V29.2C3.57035 29.3313 3.59621 29.4614 3.64647 29.5827C3.69672 29.704 3.77038 29.8143 3.86324 29.9071C3.9561 30 4.06634 30.0736 4.18766 30.1239C4.30899 30.1741 4.43902 30.2 4.57035 30.2C4.70167 30.2 4.8317 30.1741 4.95303 30.1239C5.07436 30.0736 5.18459 30 5.27745 29.9071C5.37031 29.8143 5.44397 29.704 5.49423 29.5827C5.54448 29.4614 5.57035 29.3313 5.57035 29.2V23.25C5.56164 22.8607 5.66677 22.4773 5.87283 22.1469C6.07889 21.8165 6.37692 21.5535 6.73035 21.39C9.77061 19.9862 13.0817 19.266 16.4303 19.28C18.3067 19.2776 20.1765 19.4992 22.0003 19.94V17.9ZM22.1403 27.41H28.2803V28.81H22.1403V27.41Z" fill="#F8F8F8"/>
<path d="M33.17 21.47H28V23.47H32.17V31.84H18V23.47H24.3V23.89C24.3 24.1552 24.4054 24.4096 24.5929 24.5971C24.7804 24.7846 25.0348 24.89 25.3 24.89C25.5652 24.89 25.8196 24.7846 26.0071 24.5971C26.1946 24.4096 26.3 24.1552 26.3 23.89V20C26.3 19.7348 26.1946 19.4804 26.0071 19.2929C25.8196 19.1054 25.5652 19 25.3 19C25.0348 19 24.7804 19.1054 24.5929 19.2929C24.4054 19.4804 24.3 19.7348 24.3 20V21.47H17C16.7348 21.47 16.4804 21.5754 16.2929 21.7629C16.1054 21.9504 16 22.2048 16 22.47V32.84C16 33.1052 16.1054 33.3596 16.2929 33.5471C16.4804 33.7346 16.7348 33.84 17 33.84H33.17C33.4352 33.84 33.6896 33.7346 33.8771 33.5471C34.0646 33.3596 34.17 33.1052 34.17 32.84V22.47C34.17 22.2048 34.0646 21.9504 33.8771 21.7629C33.6896 21.5754 33.4352 21.47 33.17 21.47Z" fill="#F8F8F8"/>
</svg>
