<svg width="39" height="39" viewBox="0 0 39 39" fill="none" xmlns="http://www.w3.org/2000/svg">
<path d="M19.5 2.4375C16.1254 2.4375 12.8265 3.4382 10.0206 5.31305C7.21468 7.1879 5.02773 9.8527 3.73631 12.9705C2.44489 16.0882 2.107 19.5189 2.76536 22.8287C3.42372 26.1385 5.04876 29.1788 7.435 31.565C9.82123 33.9512 12.8615 35.5763 16.1713 36.2346C19.4811 36.893 22.9118 36.5551 26.0295 35.2637C29.1473 33.9723 31.8121 31.7853 33.687 28.9794C35.5618 26.1735 36.5625 22.8746 36.5625 19.5C36.5625 14.9747 34.7649 10.6348 31.565 7.43499C28.3652 4.23515 24.0253 2.4375 19.5 2.4375ZM19.5 9.75C19.8616 9.75 20.215 9.85722 20.5157 10.0581C20.8163 10.259 21.0506 10.5445 21.189 10.8785C21.3273 11.2126 21.3635 11.5802 21.293 11.9348C21.2225 12.2894 21.0484 12.6151 20.7927 12.8708C20.537 13.1265 20.2113 13.3006 19.8567 13.3711C19.502 13.4417 19.1345 13.4055 18.8004 13.2671C18.4664 13.1287 18.1809 12.8944 17.98 12.5938C17.7791 12.2931 17.6719 11.9397 17.6719 11.5781C17.6719 11.0933 17.8645 10.6283 18.2073 10.2854C18.5502 9.94261 19.0152 9.75 19.5 9.75ZM24.375 29.4023H14.625V26.6602H18.1289V19.6523H15.8438V16.9102H20.8711V26.6602H24.375V29.4023Z" fill="#F8F8F8"/>
</svg>
